<svg xmlns="http://www.w3.org/2000/svg" height="512pt" version="1.1" viewBox="0 0 512 512" width="512pt">
<g id="surface1">
<path d="M 511.808594 256.035156 C 511.808594 114.734375 397.257812 0.183594 255.953125 0.183594 C 114.652344 0.183594 0.101562 114.734375 0.101562 256.035156 C 0.101562 397.34375 114.652344 511.890625 255.953125 511.890625 L 511.808594 511.890625 L 511.808594 469.246094 L 397.207031 469.246094 C 468.742188 421.890625 511.777344 341.828125 511.808594 256.035156 Z M 42.746094 256.035156 C 42.746094 138.285156 138.203125 42.828125 255.953125 42.828125 C 373.707031 42.828125 469.167969 138.285156 469.167969 256.035156 C 469.167969 373.789062 373.707031 469.246094 255.953125 469.246094 C 138.257812 469.117188 42.878906 373.734375 42.746094 256.035156 Z M 42.746094 256.035156 " style=" stroke:none;fill-rule:nonzero;fill:rgb(0%,0%,0%);fill-opacity:1;" />
<path d="M 277.277344 256.035156 C 277.277344 267.8125 267.726562 277.355469 255.953125 277.355469 C 244.179688 277.355469 234.632812 267.8125 234.632812 256.035156 C 234.632812 244.261719 244.179688 234.71875 255.953125 234.71875 C 267.726562 234.71875 277.277344 244.261719 277.277344 256.035156 Z M 277.277344 256.035156 " style=" stroke:none;fill-rule:nonzero;fill:rgb(0%,0%,0%);fill-opacity:1;" />
<path d="M 255.953125 192.074219 C 291.28125 192.074219 319.917969 163.4375 319.917969 128.109375 C 319.917969 92.785156 291.28125 64.148438 255.953125 64.148438 C 220.628906 64.148438 191.992188 92.785156 191.992188 128.109375 C 192.03125 163.421875 220.644531 192.035156 255.953125 192.074219 Z M 255.953125 106.789062 C 267.726562 106.789062 277.277344 116.335938 277.277344 128.109375 C 277.277344 139.886719 267.726562 149.429688 255.953125 149.429688 C 244.179688 149.429688 234.632812 139.886719 234.632812 128.109375 C 234.644531 116.339844 244.183594 106.800781 255.953125 106.789062 Z M 255.953125 106.789062 " style=" stroke:none;fill-rule:nonzero;fill:rgb(0%,0%,0%);fill-opacity:1;" />
<path d="M 195.121094 236.269531 C 203.671875 209.929688 194.289062 181.082031 171.886719 164.800781 C 149.480469 148.523438 119.144531 148.519531 96.738281 164.792969 C 74.324219 181.0625 64.9375 209.910156 73.480469 236.25 C 82.019531 262.597656 106.546875 280.449219 134.242188 280.472656 C 161.964844 280.472656 186.535156 262.632812 195.121094 236.269531 Z M 127.695312 236.78125 C 116.496094 233.144531 110.371094 221.117188 114.007812 209.914062 C 117.648438 198.71875 129.671875 192.589844 140.871094 196.226562 C 152.070312 199.867188 158.203125 211.890625 154.5625 223.089844 C 150.914062 234.28125 138.894531 240.402344 127.699219 236.78125 Z M 127.695312 236.78125 " style=" stroke:none;fill-rule:nonzero;fill:rgb(0%,0%,0%);fill-opacity:1;" />
<path d="M 218.359375 307.785156 C 193.667969 289.851562 159.75 291.855469 137.347656 312.574219 C 114.941406 333.289062 110.292969 366.949219 126.234375 392.964844 C 142.183594 418.980469 174.285156 430.113281 202.914062 419.542969 C 231.542969 408.980469 248.71875 379.664062 243.945312 349.527344 C 241.332031 332.753906 232.121094 317.722656 218.359375 307.785156 Z M 198.011719 372.058594 C 192.035156 380.289062 181.070312 383.148438 171.835938 378.886719 C 162.597656 374.628906 157.65625 364.441406 160.03125 354.546875 C 162.410156 344.65625 171.441406 337.820312 181.605469 338.222656 C 191.769531 338.621094 200.230469 346.148438 201.824219 356.195312 C 202.703125 361.78125 201.332031 367.488281 198.011719 372.0625 Z M 198.011719 372.058594 " style=" stroke:none;fill-rule:nonzero;fill:rgb(0%,0%,0%);fill-opacity:1;" />
<path d="M 382.894531 321.9375 C 362.132812 293.386719 322.15625 287.066406 293.601562 307.820312 C 265.042969 328.574219 258.710938 368.546875 279.457031 397.109375 C 300.203125 425.671875 340.175781 432.019531 368.746094 411.28125 C 382.5625 401.378906 391.835938 386.355469 394.496094 369.566406 C 397.152344 352.777344 392.976562 335.625 382.894531 321.9375 Z M 343.679688 376.769531 C 334.15625 383.691406 320.820312 381.578125 313.898438 372.050781 C 306.976562 362.523438 309.085938 349.191406 318.617188 342.269531 C 328.144531 335.347656 341.476562 337.457031 348.398438 346.988281 C 355.308594 356.519531 353.195312 369.84375 343.679688 376.769531 Z M 343.679688 376.769531 " style=" stroke:none;fill-rule:nonzero;fill:rgb(0%,0%,0%);fill-opacity:1;" />
<path d="M 434.613281 245.542969 C 446.355469 222.492188 443.058594 194.640625 426.257812 174.964844 C 409.457031 155.292969 382.460938 147.679688 357.855469 155.671875 C 330.320312 164.621094 312.230469 190.941406 313.746094 219.855469 C 315.257812 248.765625 336 273.054688 364.320312 279.070312 C 392.636719 285.089844 421.46875 271.339844 434.613281 245.542969 Z M 396.617188 226.1875 C 391.195312 236.59375 378.441406 240.746094 367.9375 235.519531 C 360.257812 231.601562 355.691406 223.441406 356.363281 214.847656 C 357.039062 206.25 362.828125 198.90625 371.027344 196.242188 C 379.230469 193.578125 388.230469 196.113281 393.828125 202.671875 C 399.429688 209.230469 400.53125 218.515625 396.613281 226.199219 Z M 396.617188 226.1875 " style=" stroke:none;fill-rule:nonzero;fill:rgb(0%,0%,0%);fill-opacity:1;" />
</g>
</svg>